Coordinates
version=1
nRows=6
nColumns=36
inDegrees=yes

Units are S.I. units (second, meters, Newtons, ...)
If the header above contains a line with 'inDegrees', this indicates whether rotational values are in degrees (yes) or radians (no).

endheader
time	pelvis_tilt	pelvis_list	pelvis_rotation	pelvis_tx	pelvis_ty	pelvis_tz	hip_flexion_r	hip_adduction_r	hip_rotation_r	knee_angle_r	knee_angle_r_beta	ankle_angle_r	subtalar_angle_r	mtp_angle_r	hip_flexion_l	hip_adduction_l	hip_rotation_l	knee_angle_l	knee_angle_l_beta	ankle_angle_l	subtalar_angle_l	mtp_angle_l	lumbar_extension	lumbar_bending	lumbar_rotation	arm_flex_r	arm_add_r	arm_rot_r	elbow_flex_r	pro_sup_r	arm_flex_l	arm_add_l	arm_rot_l	elbow_flex_l	pro_sup_l
      1.96666670	      0.19939750	      0.91463421	      5.57663832	      0.87785321	      1.23020776	      0.07155631	      0.89529704	      0.96673029	    -13.39650613	     13.05882582	      0.22791951	    -48.64289687	     -5.85750872	     -7.49999987	      4.37657884	      0.29175995	    -10.71193938	     16.41969121	      0.28657767	    -48.77877514	      8.77575898	     -7.49999987	      1.49122057	      0.83894195	     -5.70027736	     -8.88238000	    -21.31515402	      2.05949911	    114.59030703	     88.85361396	     -6.73270147	    -21.22680556	     10.42549436	    122.97984088	     87.60352796
      1.98333330	      0.20003623	      0.89834643	      4.84568712	      0.87595132	      1.23470435	      0.07491397	      2.06621705	      1.22285893	    -12.08606904	     14.10986710	      0.24626364	    -48.27381983	     -7.43863116	     -7.49999987	      5.47865967	      0.01608730	     -9.67002165	     16.29211018	      0.28435096	    -48.32167087	      8.60410945	     -7.49999987	      0.20667485	      0.53722017	     -5.39665800	     -8.70982027	    -20.36539910	      3.81993105	    114.07696347	     89.02964664	     -7.36271336	    -19.25217257	     11.36877730	    121.89015698	     87.65882448
      2.00000000	     -0.17118783	      0.94890959	      4.36773340	      0.87651286	      1.24126001	      0.07800831	      3.28453602	      1.36229662	    -11.91225930	     14.16240721	      0.24718064	    -47.90570059	     -8.36022654	     -7.49999987	      6.06761073	     -0.24170523	     -8.89121035	     14.74360150	      0.25732439	    -47.35002736	      8.86930921	     -7.49999987	     -0.34289494	      0.02465639	     -5.49957908	     -8.42916810	    -19.69109725	      6.06732002	    113.42372190	     89.28706046	     -7.85469091	    -17.87284224	     12.41074451	    120.86857748	     87.59700753
      2.01666670	     -0.92314448	      0.79058857	      3.84261926	      0.87344605	      1.24327970	      0.08052844	      5.26486440	      1.75108194	    -11.87551345	     14.10583601	      0.24619328	    -47.48904995	     -9.02087190	     -7.49999987	      6.81691374	     -0.69134801	     -8.23784908	     12.90518236	      0.22523792	    -46.31070057	      9.42195102	     -7.49999987	     -1.04194402	     -0.24181563	     -7.37397615	     -6.48402124	    -19.47786768	      9.64415552	    112.94577260	     90.13856270	     -9.80015413	    -16.33648630	     11.50891833	    121.66530600	     86.71937994
      2.03333330	     -1.33596444	      0.61764340	      3.67984601	      0.87249922	      1.23597680	      0.08160584	      6.98978189	      2.05665886	    -11.79629634	     14.17011325	      0.24731513	    -46.57567387	     -9.49199519	     -7.49999987	      7.51352972	     -1.06452917	     -7.62660143	     11.52141876	      0.20108669	    -44.17644320	      9.43095569	     -7.49999987	     -1.84784440	     -0.39324443	     -7.60982346	     -6.62999097	    -19.14491851	     10.70478058	    113.49557065	     88.82825464	     -9.88780187	    -15.68840526	     12.51257345	    121.81428070	     85.29659740
      2.05000000	     -1.79989208	      0.57802882	      3.30950047	      0.87393464	      1.22775073	      0.08315507	      8.47494754	      2.06582333	    -11.98666939	     14.63074140	      0.25535461	    -45.31786115	    -10.09094006	     -7.49999987	      8.34208593	     -1.26174931	     -7.00605173	     10.90820462	      0.19038409	    -40.83420982	      9.28945938	     -7.49999987	     -2.46184061	     -0.55334755	     -7.66045487	     -6.58671760	    -19.00076935	     11.58027563	    114.12665667	     88.55044963	     -9.97206526	    -15.31186380	     13.30395529	    122.23353546	     84.85857704
